<svg width="64" height="64" viewBox="0 0 64 64" fill="none" xmlns="http://www.w3.org/2000/svg">
<path fill-rule="evenodd" clip-rule="evenodd" d="M31.9995 9.80572C28.0278 9.80572 24.0802 11.4632 20.157 14.7773C24.3026 -2.42591 39.6966 -2.42566 43.8419 14.7773C39.9186 11.4632 35.9711 9.80572 31.9995 9.80572ZM60.5239 38.3782C60.2664 38.3782 60.0198 38.4246 59.7918 38.5095L56.3886 35.1063C56.3072 35.0232 56.2101 34.9572 56.1028 34.9121C55.9955 34.8671 55.8803 34.844 55.764 34.8441H51.2566C51.1147 34.3898 50.9434 33.9083 50.7436 33.3985C50.6887 33.2583 50.6332 33.1184 50.5771 32.9787H55.7641C55.8805 32.9788 55.9957 32.9557 56.1029 32.9106C56.2102 32.8656 56.3074 32.7995 56.3888 32.7163L59.7919 29.3132C60.0261 29.4002 60.2741 29.4447 60.524 29.4445C61.6841 29.4445 62.6246 28.504 62.6246 27.3438C62.6246 26.1837 61.6841 25.2432 60.524 25.2432C59.3639 25.2432 58.4234 26.1837 58.4234 27.3438C58.4234 27.6013 58.4699 27.848 58.5546 28.076L55.4019 31.2287H49.8376C49.5577 30.5997 49.2623 29.9777 48.9515 29.3633H53.3059C53.5379 29.3633 53.7605 29.2712 53.9246 29.1071C54.0887 28.943 54.1809 28.7204 54.1809 28.4883V23.3538C54.9041 23.022 55.4065 22.2916 55.4065 21.4437C55.4065 20.2836 54.466 19.3431 53.3059 19.3431C52.1457 19.3431 51.2052 20.2836 51.2052 21.4437C51.2052 22.2916 51.7076 23.022 52.4309 23.3538V27.6133H48.0019C46.4733 24.9855 44.7262 22.8581 42.6745 21.2635C41.6946 22.6501 40.7654 24.3947 39.8936 26.2941H43.2752C44.5739 26.2941 45.6365 27.3566 45.6365 28.6553V41.5527C46.5863 41.4243 47.4581 41.2773 48.2318 41.1107C49.1839 40.9056 49.9294 40.6096 50.4841 40.2095H52.4309V44.469C51.7076 44.8008 51.2052 45.5312 51.2052 46.3791C51.2052 47.5392 52.1457 48.4797 53.3059 48.4797C54.466 48.4797 55.4065 47.5392 55.4065 46.3791C55.4065 45.5312 54.9041 44.8008 54.1809 44.469V39.3345C54.1809 39.1024 54.0887 38.8798 53.9246 38.7158C53.7605 38.5517 53.5379 38.4595 53.3059 38.4595H51.652C51.7751 37.9216 51.78 37.3025 51.675 36.5941H55.4019L58.5546 39.7468C58.4676 39.9811 58.4231 40.2291 58.4234 40.479C58.4234 41.6391 59.3639 42.5796 60.524 42.5796C61.6841 42.5796 62.6246 41.6391 62.6246 40.479C62.6246 39.3188 61.6841 38.3783 60.524 38.3783L60.5239 38.3782ZM24.4897 26.294C23.5002 24.372 22.4589 22.6081 21.3909 21.2115C19.3104 22.8118 17.5423 24.9567 15.997 27.6132H11.5683V23.3515C12.291 23.0193 12.7939 22.291 12.7939 21.4436C12.7939 20.2835 11.8534 19.343 10.6933 19.343C10.4561 19.343 10.229 19.3841 10.0164 19.4565L10.0135 19.4553C9.97762 19.4676 9.94287 19.482 9.90788 19.4961C9.89488 19.5013 9.88163 19.5057 9.86875 19.5112C9.812 19.5355 9.75675 19.5622 9.70275 19.5912C9.6875 19.5993 9.67288 19.6086 9.65788 19.6171C9.61888 19.6392 9.5805 19.6623 9.54313 19.6868C9.52501 19.6988 9.50709 19.7111 9.48938 19.7237C9.45512 19.7477 9.42175 19.7727 9.38912 19.7987C9.37287 19.8116 9.3565 19.8242 9.34062 19.8376C9.30175 19.8703 9.26438 19.9045 9.228 19.94C9.22038 19.9475 9.21213 19.9542 9.20463 19.9618C9.16162 20.0051 9.12075 20.0503 9.08162 20.0971C9.07013 20.1108 9.05963 20.1252 9.04838 20.1392C9.021 20.1737 8.9945 20.2088 8.96925 20.245C8.93283 20.2978 8.89871 20.3521 8.867 20.4078C8.85713 20.4252 8.847 20.4423 8.8375 20.46C8.81138 20.5092 8.787 20.5595 8.76475 20.6108C8.76225 20.6166 8.75925 20.6221 8.75675 20.6278C8.73263 20.6851 8.7115 20.7438 8.6925 20.8035C8.68675 20.8213 8.68213 20.8396 8.67688 20.8577C8.65813 20.9221 8.64253 20.9873 8.63013 21.0532C8.62187 21.0973 8.61525 21.1418 8.60975 21.1868C8.60725 21.2068 8.60437 21.2267 8.6025 21.247C8.5965 21.3117 8.59263 21.377 8.59263 21.4432C8.59263 21.5082 8.5965 21.5722 8.60238 21.6358C8.604 21.6542 8.60638 21.6723 8.6085 21.6906C8.61413 21.7388 8.6215 21.7865 8.63037 21.8337C8.63337 21.85 8.636 21.8663 8.6395 21.8825C8.65238 21.9431 8.6675 22.0028 8.6855 22.0613C8.68875 22.0718 8.69275 22.0818 8.69613 22.0922C8.73247 22.2042 8.7783 22.3128 8.83313 22.417C8.8395 22.4291 8.84525 22.4416 8.85188 22.4535C8.88063 22.5058 8.91162 22.5567 8.94462 22.6062C8.95337 22.6193 8.96288 22.6318 8.97188 22.6448C8.998 22.6822 9.02525 22.7187 9.05363 22.7542C9.0655 22.769 9.07725 22.7837 9.0895 22.7982C9.12275 22.8376 9.15738 22.8758 9.1935 22.9126C9.19963 22.9188 9.20525 22.9256 9.2115 22.9317C9.25325 22.9733 9.29725 23.0127 9.34237 23.0506C9.3565 23.0625 9.371 23.0737 9.38538 23.0851C9.41963 23.1125 9.45475 23.1386 9.49063 23.1638C9.50588 23.1746 9.52087 23.1853 9.5365 23.1957C9.58575 23.2283 9.63613 23.2593 9.68813 23.2878C9.69613 23.2922 9.70463 23.296 9.71275 23.3002C9.74763 23.3186 9.7825 23.3368 9.8185 23.3533V28.4878C9.8185 28.7199 9.91069 28.9425 10.0748 29.1066C10.2389 29.2707 10.4614 29.3628 10.6935 29.3628H15.0479C14.7371 29.9772 14.4417 30.5992 14.1617 31.2282H8.5975L5.44287 28.0736C5.53046 27.8401 5.57554 27.5928 5.576 27.3433C5.576 26.1832 4.6355 25.2427 3.47537 25.2427C3.23825 25.2427 3.01113 25.2838 2.7985 25.3562L2.79562 25.3551C2.75975 25.3673 2.725 25.3817 2.69012 25.3958C2.67712 25.4011 2.66375 25.4055 2.651 25.411C2.59425 25.4352 2.539 25.462 2.485 25.491C2.46963 25.4992 2.455 25.5083 2.44 25.517C2.401 25.5391 2.36275 25.5621 2.32538 25.5866C2.30713 25.5985 2.28938 25.611 2.27163 25.6233C2.23738 25.6473 2.204 25.6723 2.17138 25.6983C2.15513 25.7112 2.13875 25.724 2.12287 25.7373C2.084 25.7701 2.04663 25.8043 2.01025 25.8397C2.00263 25.8471 1.9945 25.854 1.987 25.8615C1.944 25.9047 1.90313 25.95 1.864 25.9968C1.8525 26.0106 1.842 26.025 1.83088 26.039C1.8035 26.0735 1.77688 26.1086 1.75163 26.1448C1.71516 26.1976 1.681 26.252 1.64925 26.3077C1.63938 26.3251 1.62925 26.3422 1.61975 26.3598C1.59363 26.4091 1.56925 26.4595 1.54688 26.511C1.54438 26.5166 1.5415 26.522 1.53913 26.5277C1.515 26.585 1.49388 26.6437 1.47488 26.7033C1.46913 26.7212 1.4645 26.7396 1.45925 26.7577C1.4405 26.8221 1.4249 26.8873 1.4125 26.9532C1.40425 26.9973 1.39763 27.0418 1.39213 27.0868C1.38963 27.1068 1.38675 27.1267 1.38488 27.147C1.37888 27.2117 1.375 27.277 1.375 27.3432C1.375 27.4095 1.37888 27.4747 1.38488 27.5395C1.38675 27.5597 1.38975 27.5795 1.39213 27.5996C1.40015 27.6662 1.41133 27.7323 1.42563 27.7978C1.43538 27.8421 1.44675 27.8856 1.45925 27.9287C1.4645 27.9467 1.46913 27.9651 1.47488 27.9828C1.494 28.0426 1.515 28.1013 1.53925 28.1586C1.54163 28.1642 1.5445 28.1695 1.547 28.1751C1.56925 28.2267 1.59375 28.2772 1.62 28.3266C1.62938 28.3442 1.6395 28.3612 1.64925 28.3785C1.70255 28.4729 1.76332 28.563 1.831 28.6477C1.842 28.6616 1.8525 28.6758 1.86388 28.6895C1.903 28.7363 1.944 28.7817 1.987 28.825C1.99437 28.8323 2.00238 28.8391 2.00988 28.8463C2.04638 28.8818 2.084 28.9162 2.12287 28.9491C2.13875 28.9625 2.15513 28.9751 2.17125 28.988C2.22093 29.0275 2.27232 29.0648 2.32525 29.0998C2.36263 29.1243 2.401 29.1475 2.44012 29.1696C2.45512 29.1781 2.46975 29.1873 2.485 29.1955C2.539 29.2245 2.59438 29.2512 2.651 29.2755C2.66387 29.281 2.67712 29.2853 2.69012 29.2906C2.72512 29.3047 2.75988 29.3191 2.79575 29.3313L2.79862 29.3302C3.01125 29.4026 3.23838 29.4437 3.4755 29.4437C3.73275 29.4437 3.978 29.3952 4.20575 29.3106L7.61075 32.7156C7.6921 32.7988 7.78928 32.8648 7.89655 32.9099C8.00382 32.955 8.11902 32.9781 8.23538 32.978H13.4223C13.3662 33.1177 13.3107 33.2576 13.2558 33.3977C13.056 33.9077 12.8846 34.3891 12.7428 34.8433H8.23538C8.11904 34.8432 8.00385 34.8664 7.89658 34.9114C7.78932 34.9564 7.69213 35.0225 7.61075 35.1056L4.20575 38.5106C3.97222 38.423 3.72491 38.3779 3.4755 38.3775C3.23838 38.3775 3.01125 38.4186 2.79862 38.491L2.79575 38.4898C2.75975 38.5021 2.72488 38.5166 2.68988 38.5307C2.677 38.5358 2.66387 38.5402 2.65112 38.5457C2.5946 38.5699 2.53917 38.5966 2.485 38.6257C2.46963 38.634 2.455 38.6431 2.44 38.6517C2.401 38.6738 2.36275 38.6968 2.32538 38.7213C2.30713 38.7332 2.28938 38.7457 2.27163 38.7581C2.23738 38.7821 2.204 38.8071 2.17138 38.8331C2.15513 38.846 2.13875 38.8587 2.12287 38.8721C2.08412 38.9047 2.04675 38.939 2.01038 38.9743C2.00275 38.9818 1.9945 38.9887 1.98688 38.9963C1.94388 39.0396 1.903 39.0848 1.86388 39.1316C1.85238 39.1453 1.84187 39.1597 1.83075 39.1737C1.80337 39.2082 1.77675 39.2433 1.7515 39.2796C1.71508 39.3324 1.68096 39.3867 1.64925 39.4425C1.63938 39.4598 1.62913 39.477 1.61975 39.4947C1.59363 39.544 1.56925 39.5943 1.547 39.6458C1.5445 39.6515 1.54163 39.657 1.53925 39.6626C1.51513 39.7198 1.494 39.7786 1.475 39.8382C1.46925 39.8561 1.46463 39.8745 1.45938 39.8926C1.44063 39.957 1.42502 40.0222 1.41263 40.0881C1.40438 40.1322 1.39775 40.1767 1.39225 40.2217C1.38975 40.2417 1.38687 40.2616 1.385 40.2818C1.379 40.3466 1.37513 40.4118 1.37513 40.4781C1.37513 40.5443 1.379 40.6096 1.385 40.6743C1.38687 40.6946 1.38988 40.7143 1.39225 40.7345C1.4003 40.8011 1.41148 40.8673 1.42575 40.9328C1.4355 40.9771 1.44688 41.0206 1.45938 41.0637C1.46463 41.0818 1.46925 41.1001 1.475 41.118C1.49413 41.1777 1.51525 41.2365 1.53938 41.2937C1.54175 41.2992 1.54462 41.3045 1.54688 41.31C1.56925 41.3617 1.59375 41.4122 1.62 41.4617C1.62938 41.4793 1.6395 41.4963 1.64925 41.5136C1.68091 41.5694 1.71503 41.6238 1.7515 41.6766C1.77688 41.713 1.8035 41.7483 1.83113 41.783C1.84213 41.7968 1.8525 41.811 1.86388 41.8246C1.90313 41.8715 1.944 41.9168 1.987 41.9601C1.99437 41.9675 2.00238 41.9742 2.00988 41.9816C2.04638 42.0171 2.08388 42.0515 2.12275 42.0842C2.13863 42.0976 2.155 42.1102 2.17125 42.1232C2.25581 42.1907 2.34564 42.2514 2.43988 42.3046C2.455 42.3132 2.46962 42.3223 2.48487 42.3306C2.53887 42.3595 2.59412 42.3863 2.65075 42.4105C2.66375 42.416 2.67725 42.4205 2.69038 42.4257C2.72525 42.4397 2.75987 42.4541 2.79562 42.4663L2.7985 42.4652C3.01113 42.5376 3.23825 42.5787 3.47537 42.5787C4.6355 42.5787 5.576 41.6382 5.576 40.4781C5.576 40.2208 5.5275 39.9756 5.44287 39.7478L8.5975 36.5932H12.3244C12.2194 37.3016 12.2242 37.9207 12.3474 38.4586H10.6935C10.4614 38.4586 10.2389 38.5508 10.0748 38.7149C9.91069 38.879 9.8185 39.1015 9.8185 39.3336V44.4681C9.78263 44.4845 9.74788 44.5027 9.71313 44.5211C9.70487 44.5255 9.69625 44.5292 9.688 44.5337C9.636 44.5621 9.58575 44.5932 9.5365 44.6258C9.52087 44.6361 9.50588 44.6471 9.4905 44.6577C9.45463 44.6828 9.41963 44.709 9.38538 44.7363C9.371 44.7478 9.35637 44.7591 9.34225 44.771C9.29712 44.809 9.25313 44.8483 9.21138 44.89C9.20525 44.8961 9.19963 44.9027 9.19363 44.9088C9.15738 44.9458 9.12275 44.9841 9.08925 45.0236C9.07713 45.038 9.06538 45.0526 9.05363 45.0672C9.025 45.1028 8.99775 45.1395 8.9715 45.1771C8.9625 45.1898 8.95312 45.2023 8.9445 45.2153C8.91139 45.265 8.88041 45.316 8.85163 45.3682C8.84513 45.3801 8.83938 45.3925 8.83313 45.4045C8.80201 45.4634 8.77385 45.5239 8.74875 45.5857C8.7295 45.6328 8.71187 45.6808 8.696 45.7297C8.69263 45.74 8.68863 45.75 8.6855 45.7603C8.66751 45.8193 8.65217 45.8789 8.6395 45.9392C8.63613 45.9553 8.6335 45.9716 8.63037 45.9878C8.6215 46.0351 8.61425 46.0827 8.6085 46.131C8.60638 46.1492 8.60413 46.1673 8.60238 46.1857C8.59662 46.2492 8.59263 46.3132 8.59263 46.3783C8.59263 46.4446 8.5965 46.5098 8.6025 46.5746C8.60437 46.5948 8.60738 46.6146 8.60975 46.6347C8.61778 46.7013 8.62896 46.7675 8.64325 46.833C8.653 46.8772 8.66438 46.9207 8.67688 46.9638C8.68213 46.982 8.68675 47.0002 8.6925 47.0181C8.71163 47.0778 8.73263 47.1366 8.75675 47.1938C8.75913 47.1996 8.76213 47.205 8.76463 47.2107C8.78688 47.2622 8.81125 47.3126 8.83738 47.3618C8.84675 47.3796 8.857 47.3967 8.86688 47.4141C8.92027 47.5082 8.98095 47.5981 9.04838 47.6827C9.0595 47.6967 9.07 47.7111 9.0815 47.7248C9.12063 47.7716 9.1615 47.817 9.2045 47.8601C9.212 47.8677 9.22025 47.8745 9.22788 47.882C9.26425 47.9173 9.30162 47.9516 9.3405 47.9843C9.35637 47.9977 9.37262 48.0103 9.38888 48.0232C9.4386 48.0627 9.49002 48.1001 9.543 48.1351C9.58038 48.1596 9.61875 48.1827 9.65775 48.2048C9.67275 48.2133 9.68738 48.2226 9.70263 48.2307C9.75663 48.2597 9.812 48.2865 9.86875 48.3107C9.88138 48.3161 9.89463 48.3205 9.90738 48.3257C9.9425 48.3398 9.97738 48.3543 10.0134 48.3666L10.0163 48.3655C10.2289 48.4378 10.456 48.479 10.6931 48.479C11.8533 48.479 12.7937 47.5385 12.7937 46.3783C12.7937 45.5308 12.2909 44.8025 11.5681 44.4705V40.2087H13.5148C14.0696 40.6088 14.815 40.905 15.7671 41.11C16.5408 41.2766 17.4128 41.4235 18.3624 41.5518V28.6546C18.3624 27.356 19.4249 26.2933 20.7236 26.2933H24.4895L24.4897 26.294ZM26.4496 26.294H37.9731C39.7137 22.3743 41.7347 18.8917 44.0685 17.324C42.3564 15.6997 40.6496 14.4185 38.9484 13.4803C39.3705 18.0741 36.6589 23.4507 31.9995 23.7528C27.3401 23.4507 24.6285 18.0741 25.0506 13.4803C23.3494 14.4185 21.6427 15.6997 19.9309 17.3237C22.2783 18.8915 24.4935 22.3742 26.4498 26.294H26.4496ZM26.8731 12.6058C28.4132 13.1156 30.1549 13.403 31.9995 13.403C33.8441 13.403 35.5857 13.1156 37.1259 12.6058C35.4116 11.9061 33.7029 11.5557 31.9995 11.5557C30.2961 11.5557 28.5874 11.9061 26.8731 12.6058ZM43.8864 28.6552V43.903C43.8864 44.2391 43.6114 44.5142 43.2751 44.5142H41.6539V52.8507C42.3766 53.1827 42.8795 53.9112 42.8795 54.7586C42.8795 55.9187 41.939 56.8592 40.7789 56.8592C40.5417 56.8592 40.3146 56.8181 40.102 56.7457L40.0991 56.7468C40.0633 56.7346 40.0284 56.7201 39.9934 56.706C39.9805 56.7007 39.9671 56.6963 39.9544 56.691C39.8979 56.6668 39.8425 56.6401 39.7884 56.611C39.7731 56.6028 39.7585 56.5936 39.7435 56.5851C39.7045 56.563 39.6662 56.5398 39.6286 56.5153C39.6105 56.5034 39.5927 56.4911 39.575 56.4786C39.5408 56.4546 39.5073 56.4295 39.4746 56.4035C39.4584 56.3906 39.4421 56.378 39.4263 56.3647C39.3873 56.3318 39.3496 56.2975 39.3131 56.2618C39.3056 56.2546 39.2976 56.2478 39.2902 56.2405C39.2473 56.1971 39.2062 56.1519 39.1671 56.105C39.1558 56.0913 39.1452 56.077 39.1341 56.0631C39.1066 56.0285 39.0801 55.9933 39.0547 55.957C39.0183 55.9042 38.9841 55.8498 38.9524 55.7941C38.9425 55.7767 38.9324 55.7596 38.923 55.742C38.8968 55.6926 38.8724 55.6421 38.8501 55.5908C38.8476 55.5852 38.8447 55.5797 38.8423 55.5741C38.8182 55.5165 38.7967 55.4579 38.7779 55.3983C38.7721 55.3805 38.7676 55.3623 38.7624 55.3443C38.7436 55.2799 38.728 55.2146 38.7156 55.1487C38.7074 55.1046 38.7006 55.06 38.6953 55.0148C38.6929 54.9948 38.6899 54.9752 38.688 54.9551C38.6817 54.8898 38.6784 54.8243 38.6781 54.7587C38.6781 54.6937 38.6821 54.6296 38.6879 54.5661C38.6895 54.5477 38.6919 54.5296 38.694 54.5115C38.6996 54.4632 38.707 54.4156 38.7159 54.3683C38.7189 54.3521 38.7215 54.3357 38.725 54.3196C38.7379 54.259 38.753 54.1992 38.771 54.1406C38.7741 54.1303 38.7781 54.1203 38.7814 54.1102C38.8179 53.9982 38.8638 53.8894 38.9185 53.7851C38.9249 53.7731 38.9306 53.7607 38.9371 53.7487C38.9659 53.6963 38.997 53.6455 39.03 53.596C39.0387 53.5828 39.0483 53.5703 39.0573 53.5573C39.0834 53.52 39.1106 53.4835 39.139 53.448C39.1509 53.4332 39.1626 53.4185 39.1749 53.404C39.2083 53.3645 39.2429 53.3262 39.2791 53.2893C39.2851 53.2832 39.2907 53.2766 39.2969 53.2705C39.3386 53.2288 39.3826 53.1895 39.4279 53.1515C39.4419 53.1396 39.4565 53.1285 39.4707 53.117C39.505 53.0896 39.5401 53.0633 39.576 53.0382C39.5913 53.0276 39.6063 53.0167 39.6217 53.0065C39.671 52.9738 39.7214 52.9427 39.7734 52.9143C39.7815 52.91 39.79 52.9062 39.7983 52.9018C39.833 52.8835 39.8679 52.8652 39.9039 52.8488V44.5146H36.2279V49.2376C36.228 49.3539 36.2049 49.4691 36.1598 49.5764C36.1147 49.6837 36.0487 49.7809 35.9655 49.8622L32.8742 52.9536V58.106C33.597 58.4381 34.0999 59.1665 34.0999 60.0138C34.0999 61.174 33.1594 62.1145 31.9993 62.1145C31.7621 62.1145 31.535 62.0733 31.3224 62.001L31.3195 62.0021C31.2834 61.9897 31.2484 61.9752 31.2133 61.9611C31.2005 61.956 31.1875 61.9517 31.1749 61.9463C31.1183 61.9221 31.0628 61.8954 31.0086 61.8662C30.9935 61.8581 30.979 61.849 30.9641 61.8405C30.925 61.8184 30.8865 61.795 30.8489 61.7705C30.7958 61.7355 30.7444 61.6982 30.6947 61.6586C30.6786 61.6457 30.6624 61.6332 30.6466 61.62C30.6076 61.587 30.5698 61.5527 30.5333 61.517C30.5259 61.5097 30.518 61.5032 30.5107 61.4958C30.4677 61.4525 30.4266 61.4073 30.3876 61.3603C30.3762 61.3467 30.3657 61.3325 30.3547 61.3185C30.3139 61.2672 30.2755 61.2139 30.2397 61.159C30.2164 61.1231 30.1941 61.0865 30.1731 61.0492C30.1633 61.0318 30.1531 61.0148 30.1438 60.9972C30.1175 60.948 30.0931 60.8976 30.0709 60.846C30.0684 60.8403 30.0655 60.8348 30.063 60.8292C30.039 60.7716 30.0175 60.713 29.9986 60.6535C29.993 60.6357 29.9884 60.6175 29.9831 60.5996C29.9706 60.5563 29.9592 60.5128 29.9494 60.4685C29.935 60.4029 29.9238 60.3366 29.9159 60.27C29.9135 60.25 29.9105 60.2303 29.9086 60.2102C29.9023 60.145 29.899 60.0794 29.8988 60.0138C29.8988 59.9487 29.9028 59.8847 29.9085 59.8211C29.9101 59.8028 29.9124 59.7847 29.9146 59.7666C29.9202 59.7182 29.9276 59.6705 29.9365 59.6232C29.9395 59.607 29.9421 59.5907 29.9456 59.5746C29.9585 59.514 29.9736 59.4542 29.9916 59.3956C29.9947 59.3853 29.9988 59.3753 30.002 59.3652C30.0386 59.2531 30.0845 59.1443 30.1392 59.0398C30.1455 59.0278 30.1513 59.0156 30.1578 59.0037C30.1866 58.9513 30.2176 58.9003 30.2507 58.8507C30.2594 58.8377 30.2688 58.8253 30.2776 58.8126C30.3443 58.7172 30.4187 58.6274 30.5 58.5441C30.506 58.538 30.5114 58.5315 30.5175 58.5255C30.5595 58.484 30.6032 58.4442 30.6485 58.4063C30.6625 58.3946 30.677 58.3833 30.6914 58.3718C30.7256 58.3445 30.7608 58.3182 30.7968 58.293C30.812 58.2823 30.827 58.2715 30.8425 58.2612C30.8918 58.2286 30.9421 58.1975 30.9942 58.1691C31.0022 58.1647 31.0107 58.161 31.0189 58.1567C31.0538 58.1383 31.0886 58.1201 31.1246 58.1036V52.5912C31.1246 52.3673 31.2101 52.1435 31.381 51.9726L34.4782 48.8753V44.5147H29.521V49.64C29.521 49.872 29.4288 50.0946 29.2647 50.2587C29.1006 50.4228 28.8781 50.515 28.646 50.515C28.4139 50.515 28.1914 50.4228 28.0273 50.2587C27.8632 50.0946 27.771 49.872 27.771 49.64V44.5147H24.095V52.8512C24.8178 53.1833 25.3206 53.9117 25.3206 54.7591C25.3206 55.9192 24.3801 56.8597 23.22 56.8597C22.9829 56.8597 22.7558 56.8186 22.5431 56.7461L22.5403 56.7472C22.5043 56.735 22.4694 56.7205 22.4344 56.7063C22.4215 56.7011 22.4084 56.6968 22.3956 56.6913C22.3391 56.6671 22.2837 56.6404 22.2295 56.6113C22.2144 56.6032 22.1999 56.5941 22.1849 56.5856C22.1457 56.5635 22.1073 56.5401 22.0696 56.5156C22.0515 56.5037 22.0339 56.4913 22.0161 56.479C21.9818 56.4549 21.9483 56.4298 21.9155 56.4037C21.8994 56.3908 21.883 56.3783 21.8673 56.365C21.8283 56.332 21.7904 56.2976 21.7539 56.262C21.7465 56.2547 21.7386 56.2482 21.7314 56.2408C21.6884 56.1975 21.6473 56.1523 21.6082 56.1053C21.5969 56.0917 21.5864 56.0773 21.5753 56.0635C21.5478 56.0288 21.5212 55.9937 21.4959 55.9573C21.4594 55.9045 21.4253 55.8501 21.3936 55.7943C21.3838 55.777 21.3736 55.76 21.3643 55.7423C21.3379 55.6929 21.3136 55.6425 21.2914 55.5911C21.2889 55.5855 21.286 55.58 21.2835 55.5743C21.2595 55.5167 21.238 55.4581 21.2191 55.3986C21.2135 55.3808 21.2089 55.3626 21.2036 55.3447C21.1911 55.3015 21.1798 55.258 21.1699 55.2136C21.1555 55.148 21.1443 55.0818 21.1364 55.0151C21.134 54.9951 21.131 54.9755 21.1291 54.9553C21.1228 54.8901 21.1195 54.8245 21.1192 54.759C21.1192 54.6938 21.1232 54.6298 21.129 54.5662C21.1306 54.548 21.1329 54.5298 21.1351 54.5117C21.1408 54.4633 21.1481 54.4157 21.157 54.3685C21.16 54.3522 21.1626 54.336 21.1661 54.3198C21.179 54.2592 21.1941 54.1995 21.2121 54.1408C21.2153 54.1306 21.2192 54.1206 21.2225 54.1105C21.2589 53.9984 21.3048 53.8896 21.3596 53.7852C21.3659 53.7732 21.3716 53.7608 21.3783 53.749C21.407 53.6966 21.4381 53.6456 21.4711 53.5961C21.4799 53.5831 21.4893 53.5706 21.4981 53.5577C21.5648 53.4624 21.6391 53.3726 21.7204 53.2893C21.7264 53.2832 21.7319 53.2767 21.7379 53.2707C21.7799 53.2292 21.8236 53.1895 21.8689 53.1516C21.8829 53.1398 21.8974 53.1286 21.9118 53.1171C21.946 53.0897 21.9811 53.0635 22.0171 53.0382C22.0324 53.0276 22.0474 53.0167 22.0629 53.0065C22.1121 52.9738 22.1625 52.9427 22.2146 52.9143C22.2226 52.91 22.231 52.9063 22.239 52.9021C22.2739 52.8836 22.3089 52.8653 22.3449 52.8488V44.5146H20.7236C20.5617 44.5141 20.4064 44.4496 20.2919 44.3351C20.1774 44.2205 20.1128 44.0653 20.1124 43.9033V28.6556C20.1124 28.3195 20.3874 28.0443 20.7236 28.0443H43.2751C43.6114 28.0443 43.8864 28.3195 43.8864 28.6556V28.6552ZM34.1716 36.2791C34.1716 35.3601 33.1959 34.6105 31.9995 34.6105C30.8031 34.6105 29.8274 35.3601 29.8274 36.2791C29.8274 37.1981 30.8031 37.9477 31.9995 37.9477C33.1959 37.9477 34.1716 37.1982 34.1716 36.2791Z" fill="#E5E6EF"/>
<path d="M30.8328 36.9945L30.4381 35.6445H30.6753L30.9444 36.6195L31.2125 35.6463L31.4497 35.6445L31.7187 36.6195L31.9869 35.6445H32.2241L31.8303 36.9945H31.6072L31.3306 36.0345L31.0559 36.9945H30.8328Z" fill="#E5E6EF"/>
<path d="M32.8973 37.0226C32.8098 37.0226 32.7276 37.0073 32.6507 36.9767C32.5745 36.9454 32.5073 36.8998 32.4492 36.8398C32.3917 36.7798 32.3467 36.7063 32.3142 36.6195C32.2817 36.532 32.2654 36.432 32.2654 36.3195C32.2654 36.172 32.2929 36.046 32.3479 35.9417C32.4029 35.8367 32.4782 35.7563 32.5738 35.7007C32.6695 35.6445 32.7773 35.6163 32.8973 35.6163C33.0635 35.6163 33.1951 35.6551 33.292 35.7326C33.3895 35.8095 33.4554 35.9176 33.4898 36.057L33.2592 36.0935C33.2335 36.0135 33.1917 35.9498 33.1335 35.9023C33.0754 35.8542 33.0013 35.8301 32.9113 35.8301C32.8207 35.8288 32.7454 35.8485 32.6854 35.8892C32.6254 35.9298 32.5801 35.987 32.5495 36.0607C32.5195 36.1345 32.5045 36.2207 32.5045 36.3195C32.5045 36.4182 32.5195 36.5042 32.5495 36.5773C32.5795 36.6498 32.6245 36.7063 32.6845 36.747C32.7451 36.7876 32.8207 36.8085 32.9113 36.8098C32.9795 36.8104 33.0392 36.7982 33.0904 36.7732C33.1417 36.7476 33.1835 36.7092 33.216 36.6579C33.2485 36.606 33.2704 36.5413 33.2817 36.4638H33.0435V36.2867H33.5217C33.5229 36.2967 33.5238 36.3113 33.5245 36.3307C33.5251 36.3501 33.5254 36.3617 33.5254 36.3654C33.5254 36.4929 33.5001 36.6063 33.4495 36.7057C33.3995 36.8045 33.3276 36.882 33.2338 36.9382C33.1401 36.9945 33.0279 37.0226 32.8973 37.0226Z" fill="#E5E6EF"/>
</svg>
